<svg width="24" height="24" viewBox="0 0 24 24" xmlns="http://www.w3.org/2000/svg">
  <path d="M12.1331 23.9265C12.0344 23.9267 11.9376 23.8991 11.8538 23.847C11.77 23.7948 11.7026 23.7202 11.6592 23.6315C11.6171 23.5481 11.5992 23.4545 11.6076 23.3614C11.616 23.2684 11.6502 23.1795 11.7065 23.1049L17.3102 15.3894L7.49862 19.3973C7.43211 19.4262 7.36046 19.4414 7.28794 19.442C7.17443 19.4415 7.06413 19.4043 6.97349 19.3359C6.88285 19.2676 6.81671 19.1718 6.78494 19.0628C6.75242 18.9563 6.75596 18.8421 6.795 18.7378C6.83404 18.6336 6.90639 18.5451 7.00084 18.4862L15.6302 13.3907L0.436065 12.5165C0.313945 12.4952 0.203261 12.4315 0.123496 12.3366C0.0437314 12.2417 0 12.1217 0 11.9977C0 11.8738 0.0437314 11.7538 0.123496 11.6589C0.203261 11.564 0.313945 11.5003 0.436065 11.4789L15.6381 10.6073L7.00617 5.512C6.9117 5.45305 6.83933 5.36458 6.80029 5.2603C6.76125 5.15602 6.75772 5.04177 6.79026 4.93528C6.8219 4.82674 6.88763 4.73127 6.97773 4.66298C7.06783 4.59468 7.17751 4.5572 7.29056 4.55606C7.36343 4.55578 7.43537 4.57194 7.50123 4.60343L17.3155 8.61655L11.7118 0.90375C11.6555 0.829143 11.6212 0.740251 11.6128 0.647152C11.6044 0.554053 11.6223 0.46047 11.6644 0.377013C11.7065 0.287295 11.7731 0.211284 11.8565 0.15772C11.9399 0.104157 12.0367 0.0752136 12.1358 0.0742188C12.2741 0.075153 12.4062 0.132143 12.5018 0.232202L23.6696 11.3975C23.8283 11.5564 23.9174 11.7719 23.9174 11.9965C23.9174 12.2211 23.8283 12.4366 23.6696 12.5956L12.4965 23.7738C12.4492 23.8222 12.3926 23.8606 12.3302 23.8868C12.2678 23.913 12.2008 23.9265 12.1331 23.9265Z" fill="black"/>
</svg>
