<svg width="40" height="40" viewBox="0 0 40 40" fill="none"
  xmlns="http://www.w3.org/2000/svg">
  <path fill-rule="evenodd" clip-rule="evenodd" d="M26.2727 21.6745C26.0156 22.9177 25.4715 24.0563 24.7129 25.0182L28.5267 29.5595L28.9001 25.2717L31.9565 28.9115L31.3893 35.4248L24.7029 34.8424L21.7482 31.3239L26.0421 31.6979L22.2043 27.1281C21.0683 27.7415 19.7682 28.0897 18.3875 28.0897C14.4972 28.0897 11.2477 25.325 10.4983 21.655H7.13804C6.59659 22.5244 5.6322 23.1035 4.53369 23.1035C2.84157 23.1035 1.46791 21.7297 1.46791 20.0378C1.46791 18.3458 2.84157 16.972 4.53369 16.972C5.6322 16.972 6.59659 17.5511 7.13804 18.4205H10.4983C11.2477 14.7505 14.4972 11.9858 18.3875 11.9858C19.7674 11.9858 21.0667 12.3335 22.2024 12.9463L26.0164 8.40737L21.7286 8.7796L24.786 5.14082L31.2994 4.57523L31.88 11.2618L28.9244 14.7795L28.5515 10.4856L24.7116 15.0556C25.4701 16.0166 26.0143 17.1544 26.2719 18.3967H32.1996L29.1562 15.3533H33.909L38.5321 19.9764L33.7863 24.7222H29.1916L32.2394 21.6745H26.2727ZM18.3875 14.4779C21.456 14.4779 23.9473 16.9692 23.9473 20.0378C23.9473 23.1063 21.456 25.5976 18.3875 25.5976C15.319 25.5976 12.8277 23.1063 12.8277 20.0378C12.8277 16.9692 15.319 14.4779 18.3875 14.4779Z" fill="currentColor"/>
</svg>
