<svg width="24" height="24" viewBox="0 0 24 24" fill="none" xmlns="http://www.w3.org/2000/svg">
<path d="M12.3263 0.00224602C11.5017 -0.0162566 10.6498 0.0793828 9.77736 0.295701C5.74305 1.29568 1.22714 6.4454 6.1582 12.3833L9.10141 15.9187L9.93226 16.9248C10.4899 17.5827 11.4025 17.571 12.0728 17.0226C12.7465 16.4715 12.938 15.5677 12.3826 14.8986C12.3819 14.8976 12.1471 14.6156 12.0446 14.4933H12.0587C11.846 14.2394 11.7998 14.1968 11.5799 13.9344C10.5147 12.6631 9.29856 11.1955 9.29856 11.1955C7.15748 8.61697 8.11283 5.43145 11.0166 3.62153C13.5751 2.02681 18.2701 2.59639 19.8885 5.21457C18.8692 2.2294 15.8996 0.0824242 12.3263 0.00224602ZM12.9177 6.23467C12.5373 6.22182 12.1401 6.36575 11.8052 6.63992C11.1304 7.19162 10.9406 8.09658 11.4954 8.76398C11.4965 8.76565 11.5636 8.84838 11.6785 8.98756C12.9548 10.5092 14.6498 12.5509 14.6498 12.5509C16.7915 15.1294 15.8356 18.301 12.9318 20.1109C10.3739 21.7051 5.67828 21.1344 4.05994 18.5179C5.31439 22.1902 9.51881 24.591 14.171 23.4367C18.2065 22.4351 22.7213 17.2999 17.7902 11.3632L14.34 7.22683L13.9457 6.73774C13.6669 6.40879 13.2982 6.24753 12.9177 6.23467Z" fill="black"/>
</svg>
