<svg width="24" height="24" viewBox="0 0 24 24" xmlns="http://www.w3.org/2000/svg">
  <path d="M0.91785 7.04398H0.466803C0.342999 7.04398 0.224266 7.09434 0.136724 7.18398C0.0491809 7.27361 0 7.39519 0 7.52195C0 7.64872 0.0491809 7.77029 0.136724 7.85992C0.224266 7.94956 0.342999 7.99992 0.466803 7.99992H0.91785C1.04165 7.99992 1.16039 7.94956 1.24793 7.85992C1.33547 7.77029 1.38465 7.64872 1.38465 7.52195C1.38465 7.39519 1.33547 7.27361 1.24793 7.18398C1.16039 7.09434 1.04165 7.04398 0.91785 7.04398ZM9.54879 14.0158H9.09774C8.97394 14.0158 8.85521 14.0662 8.76766 14.1558C8.68012 14.2455 8.63094 14.3671 8.63094 14.4938C8.63094 14.6206 8.68012 14.7422 8.76766 14.8318C8.85521 14.9214 8.97394 14.9718 9.09774 14.9718H9.54879C9.67259 14.9718 9.79133 14.9214 9.87887 14.8318C9.96641 14.7422 10.0156 14.6206 10.0156 14.4938C10.0156 14.3671 9.96641 14.2455 9.87887 14.1558C9.79133 14.0662 9.67259 14.0158 9.54879 14.0158ZM9.17062 9.46407C9.17062 9.3373 9.12144 9.21573 9.0339 9.1261C8.94635 9.03646 8.82762 8.9861 8.70382 8.9861H7.14387C7.02006 8.9861 6.90133 9.03646 6.81379 9.1261C6.72624 9.21573 6.67706 9.3373 6.67706 9.46407C6.67706 9.59083 6.72624 9.71241 6.81379 9.80204C6.90133 9.89168 7.02006 9.94204 7.14387 9.94204H8.70382C8.82762 9.94204 8.94635 9.89168 9.0339 9.80204C9.12144 9.71241 9.17062 9.59083 9.17062 9.46407ZM23.9764 6.45913L23.5017 3.72846C23.4371 3.23426 23.194 2.78278 22.8202 2.46318C22.4465 2.14357 21.9692 1.97906 21.4828 2.00214H3.19869C3.00881 1.99521 2.81993 2.03316 2.64669 2.11305C2.47346 2.19294 2.32052 2.31262 2.19976 2.4628C2.07899 2.61299 1.99363 2.78964 1.95031 2.97905C1.90698 3.16846 1.90686 3.36555 1.94994 3.55502L2.45023 6.45913C2.45432 6.48225 2.45958 6.50513 2.46598 6.5277C2.52507 6.88264 2.34977 7.02583 2.1922 7.07827C2.089 7.11629 2.00216 7.19031 1.94694 7.28734C1.89171 7.38438 1.87162 7.49822 1.89018 7.60891C1.90875 7.71959 1.96478 7.82005 2.04846 7.89266C2.13214 7.96526 2.23812 8.00538 2.3478 8.00597H22.7276C22.9169 8.01266 23.1051 7.97476 23.2778 7.89521C23.4505 7.81566 23.603 7.69657 23.7237 7.54712C23.8443 7.39768 23.9298 7.22186 23.9737 7.03323C24.0175 6.8446 24.0184 6.64819 23.9764 6.45913ZM17.7563 17.4141C17.5593 16.3553 16.9684 15.962 16.3007 15.962H11.4712C11.3466 15.9631 11.2276 16.0146 11.1401 16.1053C11.0526 16.196 11.0038 16.3185 11.0043 16.446C11.0033 16.5652 11.0457 16.6804 11.1233 16.7692C11.2009 16.858 11.3081 16.9139 11.4239 16.926C11.5775 16.9542 11.743 17.1599 11.8474 17.6682L12.3437 20.4916C12.4344 20.9166 12.6625 21.2978 12.9909 21.5737C13.3193 21.8496 13.729 22.0041 14.1538 22.0122L17.0354 21.9981C17.225 22.0075 17.4142 21.9721 17.5883 21.8946C17.7625 21.8171 17.9168 21.6996 18.0395 21.5512C18.1621 21.4028 18.2498 21.2275 18.2956 21.0389C18.3414 20.8502 18.3442 20.6533 18.3038 20.4634L17.7563 17.4141ZM11.3707 15.0061H16.6119C16.6512 15.0053 16.6903 14.9992 16.7281 14.9879C17.2126 14.883 17.2363 14.4797 17.1732 14.0784L16.5055 10.3252C16.3224 9.34912 15.7689 8.96392 15.0421 8.96392H10.2421C10.124 8.96525 10.0107 9.01239 9.92522 9.09583C9.8397 9.17927 9.78826 9.29281 9.78127 9.41355C9.77427 9.53429 9.81224 9.65326 9.88753 9.74647C9.96281 9.83968 10.0698 9.9002 10.187 9.91582C10.3465 9.94607 10.5218 10.1659 10.6242 10.7225L11.1304 13.5944C11.1441 13.6461 11.1471 13.7002 11.1393 13.7532C11.1315 13.8061 11.113 13.8569 11.085 13.9022C11.0571 13.9475 11.0203 13.9864 10.9769 14.0164C10.9335 14.0463 10.8845 14.0668 10.833 14.0764C10.7288 14.1133 10.6409 14.1869 10.5849 14.2841C10.5288 14.3812 10.5083 14.4956 10.527 14.6068C10.5457 14.718 10.6024 14.8188 10.6869 14.8912C10.7715 14.9636 10.8784 15.0029 10.9886 15.002H11.3628L11.3707 15.0061Z" fill="black"/>
</svg>
