<svg width="24" height="24" viewBox="0 0 24 24" fill="none" xmlns="http://www.w3.org/2000/svg">
<path d="M17.6244 16.1144H20.5353V9.19596L17.2564 5.94984L15.1978 7.98708L17.6244 10.3894V16.1144ZM20.5422 17.5588H16.3033H10.3902L7.96327 15.1568L8.99236 14.1377L10.9971 16.1224H15.1207L11.0582 12.0929L12.0949 11.0665L16.1575 15.0884V11.0057L14.1611 9.02928L15.1822 8.01804L10.1367 3H5.16036H0L2.90291 5.87388V5.88144H2.91818H8.924L11.0509 7.98708L7.94036 11.0665L5.81382 8.96052V7.32612H2.90291V10.1539L7.94036 15.1417L5.89018 17.1718L9.16909 20.4182H14.1451H23.4455L20.5422 17.5588Z" fill="currentColor"/>
</svg>
