<svg xmlns="http://www.w3.org/2000/svg" viewBox="0 0 32 32" fill="none">
  <defs>
    <linearGradient id="g" x1="0" y1="0" x2="32" y2="32">
      <stop offset="0%" stop-color="#8b5cf6"/>
      <stop offset="50%" stop-color="#6366f1"/>
      <stop offset="100%" stop-color="#4f46e5"/>
    </linearGradient>
  </defs>
  <rect width="32" height="32" rx="7" fill="url(#g)"/>
  <!-- Simplified G-arrow glyph for small sizes -->
  <path d="M20.5 12.2h-4v-2.5c2.5-.2 4.5.7 5.6 2.2 1.2 1.5 1.8 3.5 1.8 5.1 0 4.5-3.2 7.5-8 7.5S8 21.5 8 17s3.2-7.5 8-7.5v2.4c-3.2 0-5.5 2-5.5 5.1s2.3 5.1 5.5 5.1 5.3-2 5.3-4.5h-5.3v-2.3h4.5V12.2z" fill="white"/>
  <polygon points="19.5,10 22.5,13.2 19.5,16.4" fill="white"/>
</svg>
